<svg xmlns="http://www.w3.org/2000/svg" version="1.1" xmlns:xlink="http://www.w3.org/1999/xlink" xmlns:svgjs="http://svgjs.dev/svgjs" width="560" height="560" preserveAspectRatio="none" viewBox="0 0 560 560"><g mask="url(&quot;#SvgjsMask1024&quot;)" fill="none"><rect width="560" height="560" x="0" y="0" fill="rgba(35, 198, 105, 1)"></rect><path d="M0,254.53C46.095,244.958,69.696,195.408,107.913,167.916C143.44,142.359,190.74,134.272,216.426,98.838C244.671,59.874,264.922,10.497,256.353,-36.858C247.852,-83.837,206.99,-116.642,171.63,-148.719C139.74,-177.648,105.087,-206.626,62.467,-212.743C22.091,-218.538,-14.126,-192.884,-53.139,-180.976C-91.646,-169.223,-133.911,-168.449,-165.292,-143.226C-199.819,-115.474,-223.516,-76.424,-236.068,-33.941C-249.911,12.912,-257.119,63.846,-239.992,109.601C-222.351,156.73,-184.228,193.621,-141.151,219.635C-98.805,245.208,-48.436,264.588,0,254.53" fill="#1b9a52"></path><path d="M560 787.929C606.9110000000001 786.185 657.65 798.775 697.2239999999999 773.525 736.828 748.256 748.009 697.5 768.205 655.0840000000001 788.755 611.926 818.356 570.891 816.448 523.128 814.456 473.271 794.376 422.494 757.567 388.807 722.086 356.33500000000004 670.441 352.913 622.851 345.951 580.993 339.827 537.369 333.972 498.609 350.921 461.837 367.001 446.765 409.192 416.904 436.007 381.216 468.054 315.24 476.395 306.38599999999997 523.5360000000001 297.632 570.143 359.603 599.409 378.007 643.114 397.273 688.866 377.21299999999997 753.067 416.05899999999997 783.977 454.395 814.481 511.043 789.749 560 787.929" fill="#3fdd83"></path></g><defs><mask id="SvgjsMask1024"><rect width="560" height="560" fill="#ffffff"></rect></mask></defs></svg>